<?xml version="1.0" encoding="utf-8"?>
<!-- Generator: Adobe Illustrator 23.0.1, SVG Export Plug-In . SVG Version: 6.00 Build 0)  -->
<svg version="1.1" id="Layer_3" xmlns="http://www.w3.org/2000/svg" xmlns:xlink="http://www.w3.org/1999/xlink" x="0px" y="0px"
	 viewBox="0 0 360 360" style="enable-background:new 0 0 360 360;" xml:space="preserve">
<style type="text/css">
	.st0{fill:#CA2127;}
</style>
<path class="st0" d="M360,180c0-49-35.2-89.7-81.7-98.3C269.7,35.2,229,0,180,0S90.3,35.2,81.7,81.7C35.2,90.3,0,131,0,180
	c0,49,35.2,89.7,81.7,98.3C90.3,324.8,131,360,180,360s89.7-35.2,98.3-81.7C324.8,269.7,360,229,360,180z M125.8,125.8
	c12.4,5.9,22.4,15.9,28.3,28.3C141.8,148.2,131.8,138.2,125.8,125.8z M154.2,205.8c-5.9,12.4-15.9,22.4-28.3,28.3
	C131.8,221.8,141.8,211.8,154.2,205.8z M234.2,234.2c-12.4-5.9-22.4-15.9-28.3-28.3C218.2,211.8,228.2,221.8,234.2,234.2z
	 M205.8,154.2c5.9-12.4,15.9-22.4,28.3-28.3C228.2,138.2,218.2,148.2,205.8,154.2z M180,40c27.1,0,49.9,17.9,57.4,42.6
	c-23.3,5.4-43.5,18.9-57.4,37.4c-13.9-18.5-34.1-32.1-57.4-37.4C130.1,57.9,152.9,40,180,40z M40,180c0-27.1,17.9-49.9,42.6-57.4
	c5.4,23.3,18.9,43.5,37.4,57.4c-18.5,13.9-32.1,34.1-37.4,57.4C57.9,229.9,40,207.1,40,180z M180,320c-27.1,0-49.9-17.9-57.4-42.6
	c23.3-5.4,43.5-18.9,57.4-37.4c13.9,18.5,34.1,32.1,57.4,37.4C229.9,302.1,207.1,320,180,320z M277.4,237.4
	c-5.4-23.3-18.9-43.5-37.4-57.4c18.5-13.9,32.1-34.1,37.4-57.4c24.6,7.5,42.6,30.3,42.6,57.4S302.1,229.9,277.4,237.4z"/>
</svg>
