<?xml version="1.0" encoding="utf-8"?>
<!-- Generator: Adobe Illustrator 23.0.1, SVG Export Plug-In . SVG Version: 6.00 Build 0)  -->
<svg version="1.1" id="Layer_2" xmlns="http://www.w3.org/2000/svg" xmlns:xlink="http://www.w3.org/1999/xlink" x="0px" y="0px"
	 viewBox="0 0 360 360" style="enable-background:new 0 0 360 360;" xml:space="preserve">
<style type="text/css">
	.st0{fill:#CA2127;}
</style>
<g>
	<path class="st0" d="M129.9,211.6L84,252.1c-1.9,1.8-3.7,1.7-5.4-0.3l-7.5-8.8c-1.6-1.9-1.5-3.6,0.3-5.3l33.7-29.5l-33.7-29.3
		c-1.9-1.7-2-3.5-0.3-5.4l7.5-8.6c1.8-2,3.6-2.1,5.4-0.3l45.9,40.3c1.2,1,1.8,2.1,1.8,3.4C131.7,209.5,131.1,210.6,129.9,211.6z"/>
	<path class="st0" d="M134.7,276.7c-2.5,0-3.8-1.3-3.8-3.8v-10.7c0-2.5,1.3-3.8,3.8-3.8H203c2.5,0,3.8,1.3,3.8,3.8v10.7
		c0,2.5-1.3,3.8-3.8,3.8H134.7z"/>
</g>
<path class="st0" d="M312,20H48C21.5,20,0,41.5,0,68v224c0,26.5,21.5,48,48,48h264c26.5,0,48-21.5,48-48V68
	C360,41.5,338.5,20,312,20z M142,45c12.7,0,23,10.3,23,23c0,12.7-10.3,23-23,23s-23-10.3-23-23C119,55.3,129.3,45,142,45z M66,45
	c12.7,0,23,10.3,23,23c0,12.7-10.3,23-23,23S43,80.7,43,68C43,55.3,53.3,45,66,45z M344,292c0,17.6-14.4,32-32,32H48
	c-17.6,0-32-14.4-32-32V116h328V292z"/>
</svg>
