<?xml version="1.0" encoding="utf-8"?>
<!-- Generator: Adobe Illustrator 23.0.1, SVG Export Plug-In . SVG Version: 6.00 Build 0)  -->
<svg version="1.1" id="Layer_3" xmlns="http://www.w3.org/2000/svg" xmlns:xlink="http://www.w3.org/1999/xlink" x="0px" y="0px"
	 viewBox="0 0 360 360" style="enable-background:new 0 0 360 360;" xml:space="preserve">
<style type="text/css">
	.st0{fill:#CA2127;}
</style>
<path class="st0" d="M29.8,58.7c-9.6,0-17.1,2.6-22.2,7.7c-8.5,8.5-9.9,23.9-4.2,44.5C9,130.7,21,154.6,38.2,180
	C51.4,160,67.5,139.7,86,119.6C72.9,99.4,63.4,80.7,57.6,63.9C47.1,60.4,37.7,58.7,29.8,58.7z"/>
<path class="st0" d="M66.5,299.7c-7.6,23.5-6.8,40.8,2.5,50c16.5,16.5,58.6,5.8,109.7-28l1.2-0.8l1.2,0.8
	c51.2,33.8,93.2,44.5,109.7,28c9.3-9.3,10.2-26.6,2.5-50c-15.3-5.2-32.3-13.7-50.6-25.1l-2.5-1.6l2.2-2c5.2-4.8,10.4-9.8,15.9-15.3
	c3.1-3,6-6.1,8.9-9.1c-12.5-19.8-27.9-40.1-45.8-60.4c-5.3,5.7-10.6,11.2-16,16.6c-8.2,8.2-16.3,15.9-24.1,22.8L180,227l-1.5-1.3
	c-7.8-6.9-15.9-14.6-24.1-22.8c-5.4-5.4-10.7-10.9-16-16.6c-17.9,20.2-33.3,40.5-45.8,60.4c3.2,3.3,6.2,6.3,8.9,9.1
	c5.5,5.5,10.7,10.5,15.9,15.3l2.2,2l-2.5,1.6C99,285.9,82,294.3,66.5,299.7z"/>
<path class="st0" d="M180,137.8l1.5,1.4c6.5,6,12.6,11.9,18.7,17.9c8.3,8.3,16,16.5,23,24.3c19.2,21.5,35.6,43.1,48.9,64.3
	c11.6,18.6,20.1,36,25.3,51.4c5.6,16.9,7.1,31,4.4,41.7l45.3-45.2c16.3-16.3,5.9-57.9-27.1-108.4c-13.7-21-30.7-42.5-50.4-63.9
	c-5.3-5.7-10.8-11.4-16.4-17.1c-3.3-3.3-7-6.9-11.5-11.2l-2.1-2l2.4-1.5c21.2-13.8,40.7-23.8,58-29.5c16.9-5.6,31-7.1,41.7-4.4
	l-45.3-45.3c-8.4-8.4-23.6-9.9-44-4.3c-20.3,5.6-44.9,18-71.1,35.9l-1.3,0.9l-1.3-0.9C152.6,24,128,11.6,107.7,6
	c-20.3-5.6-35.5-4.1-44,4.3L18.5,55.6c10.7-2.7,24.8-1.2,41.7,4.4c17.2,5.8,37.3,16,58,29.5l2.4,1.6l-2.1,2
	c-3.6,3.4-7.4,7.1-11.5,11.2c-5.6,5.6-11.2,11.4-16.4,17.1c-19.7,21.4-36.6,42.9-50.4,63.9C7,235.8-3.4,277.3,13,293.7l45.1,45.2
	c-2.7-10.7-1.2-24.8,4.4-41.7c5.2-15.5,13.7-32.8,25.3-51.4c13.2-21.1,29.6-42.7,48.9-64.3c7.9-8.8,15.5-16.8,23-24.3
	c6-6.1,12.3-12.1,18.7-17.9L180,137.8z"/>
<path class="st0" d="M274,119.5c18.5,20.2,34.5,40.5,47.8,60.4c17.2-25.4,29.2-49.2,34.7-69.1c5.8-20.6,4.3-36-4.2-44.5
	c-9.3-9.3-26.5-10.1-50-2.5C296.6,80.6,287.1,99.4,274,119.5z"/>
</svg>
