<?xml version="1.0" encoding="utf-8"?>
<!-- Generator: Adobe Illustrator 23.0.1, SVG Export Plug-In . SVG Version: 6.00 Build 0)  -->
<svg version="1.1" id="Layer_3" xmlns="http://www.w3.org/2000/svg" xmlns:xlink="http://www.w3.org/1999/xlink" x="0px" y="0px"
	 viewBox="0 0 360 360" style="enable-background:new 0 0 360 360;" xml:space="preserve">
<style type="text/css">
	.st0{fill:#CA2127;}
</style>
<path class="st0" d="M350.6,149.5l-44.8-2.5c-3-11.6-7.6-22.5-13.5-32.6L322.2,81c3.5-4,3.4-10-0.4-13.7l-29-29
	c-3.8-3.8-9.8-3.9-13.7-0.4l-33.4,29.9c-10.1-5.9-21-10.5-32.6-13.5l-2.5-44.8c-0.3-5.3-4.7-9.4-10-9.4h-41.1c-5.3,0-9.7,4.1-10,9.4
	L147,54.2c-11.6,3-22.5,7.6-32.6,13.5L81,37.8c-4-3.5-10-3.4-13.7,0.4l-29,29C34.4,71,34.3,77,37.8,81l29.9,33.4
	c-5.9,10.1-10.5,21-13.5,32.6l-44.8,2.5c-5.3,0.3-9.4,4.7-9.4,10v41.1c0,5.3,4.1,9.7,9.4,10l44.8,2.5c3,11.6,7.6,22.5,13.5,32.6
	L37.8,279c-3.5,4-3.4,10,0.4,13.7l29,29c3.8,3.8,9.8,3.9,13.7,0.4l33.4-29.9c10.1,5.9,21,10.5,32.6,13.5l2.5,44.8
	c0.3,5.3,4.7,9.4,10,9.4h41.1c5.3,0,9.7-4.1,10-9.4l2.5-44.8c11.6-3,22.5-7.6,32.6-13.5l33.4,29.9c4,3.5,10,3.4,13.7-0.4l29-29
	c3.8-3.8,3.9-9.8,0.4-13.7l-29.9-33.4c5.9-10.1,10.5-21,13.5-32.6l44.8-2.5c5.3-0.3,9.4-4.7,9.4-10v-41.1
	C360,154.2,355.9,149.8,350.6,149.5z M180,265c-46.9,0-85-38.1-85-85s38.1-85,85-85s85,38.1,85,85S226.9,265,180,265z"/>
<g>
	<path class="st0" d="M132.5,195.9l-3.7,9.3h-13.2l21.7-50.4h13.2l21.2,50.4h-13.7l-3.6-9.3H132.5z M143.6,167.5l-7.3,18.6h14.5
		L143.6,167.5z"/>
	<path class="st0" d="M198.5,154.8c12.9,0,20.3,6.3,20.3,17.6c0,11.8-7.4,18.6-20.3,18.6h-9.1v14.2h-12.8v-50.4H198.5z M189.3,180.9
		h8.5c5.6,0,8.9-2.8,8.9-8.1c0-5.3-3.2-7.9-8.9-7.9h-8.5V180.9z"/>
	<path class="st0" d="M225.5,205.2v-50.4h12.8v50.4H225.5z"/>
</g>
</svg>
