<?xml version="1.0" encoding="utf-8"?>
<!-- Generator: Adobe Illustrator 23.0.1, SVG Export Plug-In . SVG Version: 6.00 Build 0)  -->
<svg version="1.1" id="Layer_3" xmlns="http://www.w3.org/2000/svg" xmlns:xlink="http://www.w3.org/1999/xlink" x="0px" y="0px"
	 viewBox="0 0 360 360" style="enable-background:new 0 0 360 360;" xml:space="preserve">
<style type="text/css">
	.st0{fill:#CA2127;}
</style>
<path class="st0" d="M274,154.9v-90l-94-43.7L86,64.9v90l-86,40v100.2l94,43.7l86-40l86,40l94-43.7V194.9L274,154.9z M266,231.2
	L199,200l67-31.2l67,31.2L266,231.2z M188,187.5v-72.4l70-32.6v72.4L188,187.5z M161,200l-67,31.2L27,200l67-31.2L161,200z
	 M102,245.1l70-32.6v72.4l-70,32.6V245.1z M247,70l-67,31.2L113,70l67-31.2L247,70z M274,317.5v-72.4l70-32.6v72.4L274,317.5z"/>
</svg>
